<?xml version="1.0" encoding="UTF-8" standalone="no"?>
<!DOCTYPE svg PUBLIC "-//W3C//DTD SVG 1.1//EN" "http://www.w3.org/Graphics/SVG/1.1/DTD/svg11.dtd">
<svg width="100%" height="100%" viewBox="0 0 800 800" version="1.1" xmlns="http://www.w3.org/2000/svg" xmlns:xlink="http://www.w3.org/1999/xlink" xml:space="preserve" xmlns:serif="http://www.serif.com/" style="fill-rule:evenodd;clip-rule:evenodd;stroke-linejoin:round;stroke-miterlimit:2;">
    <g transform="matrix(1.467682,0,0,1.467682,-187.675055,-185.145635)">
        <path d="M669.424,373.628C671.135,388.214 670.947,402.423 669.921,416.511C667.553,449.03 659.43,480.209 645.1,509.546C611.177,578.994 557.667,626.356 484.39,651.303C452.237,662.25 419.087,666.144 385.423,663.997C329.357,660.421 278.835,641.334 234.896,606.141C179.595,561.848 146.261,504.379 135.055,434.461C127.074,384.666 134.333,336.532 154.328,290.438C179.419,232.594 220.119,188.893 275.585,158.904C299.813,145.805 325.512,136.83 352.514,131.728C381.864,126.183 411.327,125.762 440.926,130.267C484.251,136.862 523.759,152.831 559.011,178.679C615.219,219.892 650.841,274.7 665.227,343.052C667.315,352.974 669.21,362.961 669.424,373.628M598.994,546.519C607.998,534.904 615.882,522.582 622.706,509.557C648.161,460.975 656.108,409.522 647.344,355.567C640.674,314.504 624.581,277.193 598.724,244.618C552.284,186.113 491.664,153.073 416.99,147.646C377.908,144.806 339.971,151.367 303.94,167.398C241.221,195.305 196.302,240.743 170.231,304.301C152.762,346.887 147.772,391.181 155.612,436.562C165.906,496.155 194.476,545.834 240.567,584.699C300.339,635.099 369.464,654.245 446.521,640.241C508.863,628.911 559.378,596.9 598.994,546.519Z" style="fill-rule:nonzero;"/>
    </g>
    <g transform="matrix(1.467682,0,0,1.467682,-187.675055,-185.145635)">
        <path d="M183.776,321.941C186.225,315.684 188.663,309.843 190.886,303.921C192.172,300.494 193.964,299.411 197.715,300.602C214.53,305.942 231.221,311.925 248.374,315.847C258.511,318.165 268.622,320.421 278.541,323.52C287.582,326.345 296.599,329.252 305.595,332.22C307.969,333.004 310.706,333.986 311.527,336.448C312.87,340.476 316.022,340.956 319.333,341.417C327.597,342.565 335.563,341.268 343.38,338.499C352.009,335.442 360.496,331.999 369.317,329.463C380.953,326.117 392.557,325.417 404.255,328.921C405.718,329.359 407.083,329.734 408.608,329.089C422.655,323.146 436.035,326.956 449.32,331.946C456.178,334.521 463.016,337.152 469.873,339.731C473.971,341.274 478.214,341.926 482.6,341.834C486.279,341.757 489.435,341.358 490.73,336.956C491.659,333.795 494.835,332.738 497.712,331.824C512.921,326.996 527.867,320.696 543.442,317.818C564.624,313.903 584.445,305.834 605.124,300.541C608.743,299.614 610.138,300.658 611.559,303.745C619.836,321.724 624.786,340.666 628.298,360.049C630.201,370.553 631.017,381.15 631.38,391.81C631.501,395.359 630.313,397.254 626.939,398.486C619.279,401.285 611.897,404.918 604.133,407.35C587.921,412.429 573.964,422.53 557.796,427.647C554.91,428.561 552.287,429.262 549.101,428.784C544.371,428.074 540.078,430.738 535.8,432.307C528.734,434.9 522.761,434.985 518.424,427.876C512.398,429.469 507.638,432.898 502.574,435.713C501.027,436.573 500.887,437.991 500.572,439.48C498.353,449.985 493.038,455.099 482.508,456.509C479.935,456.854 478.92,457.844 478.178,460.304C475.018,470.783 469.161,475.118 458.056,475.363C455.475,475.42 453.675,476.009 452.409,478.461C447.912,487.17 440.585,490.678 430.974,489.576C429.28,489.382 428.214,489.955 427.072,491.145C416.541,502.128 406.582,503.71 392.541,496.143C388.971,494.219 386.375,493.867 382.584,495.758C375.698,499.194 368.512,496.498 364.709,489.802C363.659,487.951 362.93,486.629 360.231,487.058C352.317,488.319 346.838,484.428 342.9,477.927C341.797,476.106 341.197,474.268 338.32,474.133C328.24,473.657 322.163,468.327 319.913,458.531C319.731,457.739 319.581,456.94 319.382,455.985C308.525,455.222 302.466,449.614 301.656,438.751C301.511,436.806 300.174,435.8 298.69,435.03C294.851,433.036 290.944,431.176 287.084,429.222C285.184,428.261 283.774,428.489 282.327,430.251C279.237,434.015 275.145,434.821 270.592,433.481C267.561,432.59 264.564,431.581 261.562,430.593C257.962,429.407 254.456,427.646 250.486,429.177C249.918,429.396 249.09,429.343 248.519,429.098C238.476,424.786 227.712,422.082 218.54,415.84C215.599,413.839 212.263,412.788 209.051,411.491C198.398,407.192 187.711,402.964 176.92,399.028C172.787,397.521 171.487,395.175 171.547,390.855C171.871,367.332 176.463,344.606 183.776,321.941M341.797,349.459C332.911,352.578 323.828,352.702 314.701,350.955C311.971,350.432 310.679,351.343 309.827,353.767C302.706,374.024 295.541,394.264 288.403,414.515C287.729,416.426 287.809,417.971 290.053,419.003C295.612,421.558 301.087,424.296 306.671,426.997C309.953,423.774 312.61,420.06 316.605,417.81C321.569,415.015 327.667,415.598 331.99,419.323C336.125,422.886 337.44,428.301 334.995,433.382C333.244,437.022 329.888,439.477 327.317,442.519C326.266,443.762 324.336,444.625 324.835,446.909C327.102,446.801 327.828,445.122 328.839,443.903C332.128,439.936 335.204,435.784 338.614,431.926C343.246,426.685 350.384,426.292 355.586,430.734C361.368,435.673 362.038,442.721 357.277,448.421C353.542,452.892 349.808,457.364 346.103,461.859C345.352,462.77 344.158,463.635 345.036,465.101C345.389,465.05 345.616,465.087 345.698,464.995C350.24,459.906 354.762,454.801 359.303,449.711C362.744,445.853 366.751,443.52 372.112,445.307C380.417,448.075 382.792,457.055 377.42,464.376C374.046,468.972 369.269,472.478 366.028,478.598C368.89,477.548 369.842,476.076 371.007,474.725C373.283,472.084 375.59,469.418 378.208,467.133C384.418,461.712 391.329,463.281 394.991,470.613C396.801,474.236 396.336,477.682 394.829,481.196C394.208,482.647 392.764,484.333 394.879,485.569C399.898,488.502 404.892,491.845 411.186,490.249C413.953,489.547 416.899,488.572 417.572,485.359C418.205,482.331 415.402,481.098 413.527,479.603C407.668,474.929 401.691,470.403 395.8,465.769C393.513,463.97 392.931,461.586 394.555,459.151C396.303,456.528 398.848,456.139 401.55,457.728C402.833,458.482 403.983,459.472 405.158,460.4C411.3,465.255 417.429,470.125 423.565,474.987C425.939,476.868 428.52,478.336 431.491,479.083C435.596,480.116 440.428,477.989 442.598,474.31C445.2,469.898 441.378,468.361 439.009,466.367C431.621,460.147 424.098,454.086 416.648,447.94C413.746,445.546 412.193,442.436 414.874,439.301C417.566,436.154 420.432,437.936 423.095,440.192C430.973,446.866 438.921,453.459 446.93,459.974C449.769,462.284 452.842,464.236 456.568,465.033C461.158,466.014 464.49,464.317 466.543,460.386C468.547,456.549 468.679,452.718 464.874,449.619C462.292,447.517 459.796,445.307 457.189,443.237C449.234,436.92 441.201,430.7 433.29,424.329C430.497,422.079 429.39,418.938 431.942,416.049C434.244,413.444 437.01,414.605 439.468,416.572C447.267,422.816 455.086,429.034 462.958,435.186C467.151,438.463 471.037,442.212 475.824,444.63C479.822,446.65 483.831,446.832 487.284,443.256C490.375,440.054 490.922,435.423 488.369,431.313C487.061,429.208 485.469,427.221 483.728,425.455C465.182,406.649 445.217,389.605 422.268,376.297C412.434,370.595 397.589,373.729 390.596,382.768C382.608,393.091 372.977,400.442 358.928,399.472C353.521,399.099 349.261,397.144 346.828,392.088C344.443,387.132 346.354,383.046 349.562,379.272C354.962,372.918 359.99,366.34 363.771,358.828C367.653,351.116 373.838,345.682 381.676,342.086C384.334,340.866 386.919,339.487 390.787,337.557C385.837,336.978 382.29,337.145 378.73,337.812C366.215,340.157 354.753,345.818 341.797,349.459M536.689,397.716C530.759,381.108 524.846,364.494 518.894,347.895C514.872,336.678 517.263,336.952 504.552,340.844C500.393,342.118 499.873,344.065 501.257,347.807C504.832,357.474 508.138,367.241 511.556,376.966C516.355,390.618 521.132,404.277 525.979,417.912C526.851,420.364 527.54,423.523 531.247,422.544C535.361,421.457 539.673,420.725 543.569,417.803C541.344,411.314 539.14,404.887 536.689,397.716M285.121,392.766C289.928,379.283 294.814,365.828 299.516,352.309C302.943,342.457 302.769,342.613 292.953,339.281C288.621,337.811 286.714,338.898 285.237,343.12C277.545,365.114 269.609,387.023 261.779,408.97C258.167,419.096 258.221,419.001 268.564,422.202C272.525,423.428 274.907,422.572 276.251,418.52C279.027,410.15 281.975,401.836 285.121,392.766Z" style="fill-rule:nonzero;"/>
    </g>
    <g transform="matrix(1.467682,0,0,1.467682,-187.675055,-185.145635)">
        <path d="M271.997,243.667C277.807,243.825 283.169,243.078 288.417,244.35C294.528,245.832 299.992,248.394 301.102,255.391C302.194,262.276 297.876,266.126 292.391,269.042C291.974,269.263 291.64,269.639 291.079,270.097C292.174,272.053 294.309,272.333 295.93,273.287C301.757,276.714 304.947,281.609 304.291,288.504C303.658,295.149 299.878,299.393 293.697,301.696C289.073,303.418 284.239,303.562 279.431,303.59C268.947,303.652 258.462,303.521 247.978,303.415C246.451,303.399 244.386,304.206 243.872,301.797C243.319,299.209 245.373,298.808 247.161,298.362C250.643,297.493 251.961,295.144 251.954,291.74C251.932,279.589 251.914,267.438 251.96,255.287C251.973,251.852 250.691,249.55 247.191,248.695C245.386,248.255 243.356,247.709 243.877,245.21C244.38,242.801 246.543,243.699 248.027,243.684C255.85,243.606 263.674,243.66 271.997,243.667M270.221,284.508C270.232,286.994 270.192,289.482 270.263,291.967C270.42,297.51 273.692,299.606 278.842,297.509C286.031,294.581 288.602,282.338 283.144,276.796C279.989,273.593 275.836,273.245 272.025,274.485C268.777,275.541 270.661,279.112 270.234,281.556C270.122,282.2 270.22,282.879 270.221,284.508M274.302,268.668C281.933,267.36 285.88,257.632 281.12,251.488C279.177,248.98 276.234,248.063 273.097,248.811C270.139,249.517 270.246,252.058 270.245,254.415C270.242,257.888 270.265,261.36 270.227,264.832C270.202,267.1 270.761,268.796 274.302,268.668Z" style="fill-rule:nonzero;"/>
    </g>
    <g transform="matrix(1.467682,0,0,1.467682,-187.675055,-185.145635)">
        <path d="M421.189,296.926C422.312,295.162 422.657,293.579 422.654,291.863C422.636,280.705 422.631,269.547 422.677,258.389C422.689,255.457 421.836,253.193 418.887,252.044C417.578,251.534 416.629,250.62 416.824,249.006C416.992,247.62 418,247.16 419.151,246.735C423.989,244.95 428.798,243.087 433.635,241.3C437.431,239.897 438.61,241.221 438.524,245.25C438.281,256.71 438.439,268.179 438.439,280.535C443.333,278.187 446.703,275.167 449.394,271.755C449.035,269.976 448.015,269.664 447.159,269.19C445.943,268.515 445.653,267.439 445.979,266.215C446.286,265.063 447.318,264.782 448.342,264.774C453.503,264.736 458.664,264.728 463.825,264.749C465.07,264.754 466.138,265.165 466.396,266.597C466.757,268.602 465.351,269.152 463.867,269.662C458.758,271.416 454.34,274.179 450.4,278.67C456.957,285.368 461.085,293.873 469.386,298.533C470.691,299.265 471.473,300.195 471.12,301.737C470.719,303.487 469.281,303.389 467.941,303.401C461.449,303.462 454.956,303.513 448.464,303.576C445.949,303.601 443.864,302.02 445.557,300.059C449.021,296.046 445.802,294.23 443.869,291.773C442.647,290.22 441.463,288.638 439.518,286.098C437.884,291.66 437.494,295.227 440.307,298.484C441.283,299.614 442.641,300.674 441.708,302.356C440.798,303.995 439.087,303.417 437.637,303.417C432.142,303.417 426.646,303.459 421.153,303.359C419.48,303.328 417.195,304.096 416.704,301.42C416.281,299.109 418.393,298.919 419.767,298.136C420.195,297.892 420.556,297.529 421.189,296.926Z" style="fill-rule:nonzero;"/>
    </g>
    <g transform="matrix(1.467682,0,0,1.467682,-187.675055,-185.145635)">
        <path d="M505.671,279.992C509.108,268.611 517.039,262.832 528.412,263.049C539.685,263.264 547.859,269.141 550.623,279.018C553.173,288.131 548.922,297.974 540.556,302.326C525.269,310.279 507.489,302.194 505.24,286.336C504.947,284.271 505.447,282.371 505.671,279.992M524.904,298.537C529.988,300.421 532.557,299.326 533.764,294.254C535.446,287.185 535.159,280.047 533.568,272.981C533.005,270.483 531.314,268.777 528.74,268.575C525.898,268.353 523.683,269.968 523.2,272.648C521.668,281.154 520.441,289.723 524.904,298.537Z" style="fill-rule:nonzero;"/>
    </g>
    <g transform="matrix(1.467682,0,0,1.467682,-187.675055,-185.145635)">
        <path d="M411.444,283.34C411.692,292.667 407.765,299.179 399.687,302.842C390.307,307.097 377.958,305.305 371.555,298.919C365.223,292.603 364.136,284.921 366.881,276.751C370.069,267.262 380.564,261.946 392.203,263.498C403.676,265.028 410.49,271.925 411.444,283.34M382.216,285.441C382.351,288.418 382.107,291.406 382.965,294.349C383.825,297.298 385.126,299.667 388.609,299.627C392.089,299.587 393.709,297.138 394.166,294.216C395.274,287.135 395.501,280.002 393.849,272.942C393.203,270.184 391.311,268.543 388.527,268.56C385.959,268.576 384.306,270.23 383.452,272.662C382.099,276.513 382.221,280.511 382.216,285.441Z" style="fill-rule:nonzero;"/>
    </g>
    <g transform="matrix(1.467682,0,0,1.467682,-187.675055,-185.145635)">
        <path d="M320.122,268.021C334.369,258.186 353.385,263.848 357.618,278.861C360.43,288.832 355.551,299.144 346.005,303.092C339.591,305.745 332.978,305.704 326.446,303.628C311.021,298.727 307.648,280.457 320.122,268.021M337.557,299.108C340.293,297.726 341.048,295.034 341.351,292.434C342.024,286.647 342.163,280.819 341.116,275.031C340.52,271.739 339.505,268.553 335.485,268.561C331.244,268.568 329.981,271.961 329.528,275.374C328.738,281.33 328.69,287.372 329.545,293.307C330.099,297.153 331.909,300.421 337.557,299.108Z" style="fill-rule:nonzero;"/>
    </g>
    <g transform="matrix(1.467682,0,0,1.467682,-187.675055,-185.145635)">
        <path d="M498.671,298.388C500.714,299.108 501.52,300.237 501.006,301.987C500.525,303.624 499.08,303.589 497.729,303.582C490.737,303.549 483.744,303.501 476.752,303.476C475.391,303.471 473.982,303.575 473.544,301.855C473.076,300.016 474.11,299.072 475.683,298.48C478.841,297.293 479.675,294.746 479.659,291.686C479.642,288.521 479.578,285.354 479.686,282.193C479.807,278.663 479.569,275.454 475.373,274.292C474.122,273.946 473.474,272.955 473.463,271.658C473.448,269.941 474.842,269.533 476.077,269.071C480.904,267.264 485.78,265.583 490.569,263.682C494.058,262.297 495.511,263.154 495.434,267.036C495.268,275.361 495.333,283.69 495.276,292.018C495.258,294.611 495.385,297.091 498.671,298.388Z" style="fill-rule:nonzero;"/>
    </g>
    <g transform="matrix(1.467682,0,0,1.467682,-187.675055,-185.145635)">
        <path d="M409.117,591.354C410.565,600.852 410,610.009 409.628,619.127C409.417,624.295 405.493,627.406 400.683,627.288C396.163,627.177 392.206,623.533 392.063,618.599C391.832,610.62 391.919,602.626 392.12,594.645C392.227,590.433 394.44,587.224 398.585,586.112C403.193,584.876 406.669,586.867 409.117,591.354Z" style="fill-rule:nonzero;"/>
    </g>
    <g transform="matrix(1.467682,0,0,1.467682,-187.675055,-185.145635)">
        <path d="M409.422,186.304C409.567,189.538 409.887,192.355 409.824,195.165C409.689,201.19 406.174,204.884 400.781,204.935C396.183,204.979 392.358,201.283 392.158,195.801C391.874,188.015 391.859,180.204 392.145,172.418C392.35,166.832 395.997,163.521 400.956,163.586C406.073,163.654 409.335,166.701 409.676,172.472C409.94,176.922 409.532,181.412 409.422,186.304Z" style="fill-rule:nonzero;"/>
    </g>
    <g transform="matrix(1.467682,0,0,1.467682,-187.675055,-185.145635)">
        <path d="M499.105,593.802C495.508,587.395 492.114,581.296 488.707,575.204C485.65,569.739 486.623,564.98 491.35,562.357C496.106,559.719 500.795,561.257 503.855,566.59C507.329,572.646 510.789,578.712 514.097,584.859C517.293,590.797 516.591,595.257 512.287,598.045C507.658,601.043 503.524,599.791 499.105,593.802Z" style="fill-rule:nonzero;"/>
    </g>
    <g transform="matrix(1.467682,0,0,1.467682,-187.675055,-185.145635)">
        <path d="M487.799,217.175C491.767,209.996 495.489,203.128 499.4,196.368C502.621,190.799 507.367,189.398 512.337,192.284C516.651,194.789 517.517,199.401 514.489,204.923C510.894,211.479 507.219,217.994 503.427,224.438C500.783,228.929 496.123,230.578 491.955,228.797C487.826,227.033 486.164,222.701 487.799,217.175Z" style="fill-rule:nonzero;"/>
    </g>
    <g transform="matrix(1.467682,0,0,1.467682,-187.675055,-185.145635)">
        <path d="M314.066,566.186C315.527,568.995 315.106,571.395 313.823,573.667C309.909,580.602 306.115,587.615 301.924,594.381C298.759,599.489 293.806,600.804 289.666,598.241C285.286,595.529 284.175,591.074 287.095,585.625C290.778,578.754 294.682,571.988 298.796,565.366C302.556,559.312 308.816,559.625 314.066,566.186Z" style="fill-rule:nonzero;"/>
    </g>
    <g transform="matrix(1.467682,0,0,1.467682,-187.675055,-185.145635)">
        <path d="M563.649,511.349C558.55,507.193 557.464,502.357 560.431,498.201C563.162,494.375 567.789,493.649 572.837,496.771C579.323,500.784 585.625,505.097 591.951,509.362C596.398,512.36 597.73,517.385 595.303,521.427C592.807,525.582 587.183,526.873 582.598,523.972C576.289,519.981 570.162,515.703 563.649,511.349Z" style="fill-rule:nonzero;"/>
    </g>
    <g transform="matrix(1.467682,0,0,1.467682,-187.675055,-185.145635)">
        <path d="M214.002,264.727C217.461,264.681 219.741,266.502 222.095,268.02C227.688,271.629 233.225,275.326 238.745,279.047C243.41,282.191 244.609,286.649 242.086,291.089C239.67,295.343 234.628,296.769 229.972,293.907C222.885,289.55 216.01,284.84 209.134,280.15C205.848,277.909 205.077,274.457 205.976,270.821C206.917,267.019 209.667,265.031 214.002,264.727Z" style="fill-rule:nonzero;"/>
    </g>
    <g transform="matrix(1.467682,0,0,1.467682,-187.675055,-185.145635)">
        <path d="M296.478,191.038C299.911,191.88 301.566,194.196 302.949,196.701C306.569,203.262 310.158,209.842 313.648,216.473C316.196,221.313 314.846,225.775 310.253,228.332C305.956,230.724 301.556,229.548 298.795,224.816C294.852,218.059 291.075,211.197 287.463,204.256C283.467,196.577 287.279,190.824 296.478,191.038Z" style="fill-rule:nonzero;"/>
    </g>
    <g transform="matrix(1.467682,0,0,1.467682,-187.675055,-185.145635)">
        <path d="M582.699,266.356C588.687,263.791 592.859,264.687 595.244,268.773C597.733,273.035 596.361,277.9 591.482,281.194C585.152,285.468 578.775,289.68 572.289,293.71C567.761,296.524 563.071,295.589 560.389,291.726C557.546,287.631 558.334,282.777 562.883,279.553C569.249,275.042 575.86,270.876 582.699,266.356Z" style="fill-rule:nonzero;"/>
    </g>
    <g transform="matrix(1.467682,0,0,1.467682,-187.675055,-185.145635)">
        <path d="M205.753,514.407C206.188,512.285 207.181,510.896 208.576,509.979C215.932,505.142 223.226,500.191 230.791,495.7C234.896,493.263 239.78,494.968 242.069,498.844C244.53,503.01 243.497,507.685 239.208,510.565C232.864,514.825 226.499,519.069 219.97,523.034C212.126,527.796 205.821,524.068 205.753,514.407Z" style="fill-rule:nonzero;"/>
    </g>
    <g transform="matrix(1.467682,0,0,1.467682,-187.675055,-185.145635)">
        <path d="M588.222,428.477C588.476,422.913 591.095,420.079 595.831,419.524C605.144,418.433 614.435,419.825 623.74,419.702C627.002,419.659 629.087,421.534 629.43,424.826C629.818,428.555 629.037,431.969 625.009,433.323C623.174,433.939 621.092,433.977 619.119,433.995C611.8,434.064 604.481,434.022 597.162,434.007C593.23,434 589.922,432.898 588.222,428.477Z" style="fill-rule:nonzero;"/>
    </g>
    <g transform="matrix(1.467682,0,0,1.467682,-187.675055,-185.145635)">
        <path d="M179.691,433.784C174.18,432.214 172.029,429.312 172.77,424.788C173.526,420.175 176.913,419.093 180.883,419.132C189.039,419.213 197.197,419.337 205.349,419.6C209.322,419.728 213.997,424.026 214.058,427.269C214.127,430.956 210.682,433.875 205.605,433.937C197.113,434.04 188.617,433.885 179.691,433.784Z" style="fill-rule:nonzero;"/>
    </g>
    <g transform="matrix(1.467682,0,0,1.467682,-187.675055,-185.145635)">
        <path d="M494.214,246.124C495.66,251.752 493.79,255.843 489.383,257.381C485.773,258.64 481.528,256.868 479.663,253.323C477.701,249.593 478.893,245.186 482.498,242.837C486.488,240.237 490.29,241.199 494.214,246.124Z" style="fill-rule:nonzero;"/>
    </g>
</svg>
